<mxfile host="app.diagrams.net" modified="2021-04-23T09:26:49.520Z" agent="5.0 (Windows NT 10.0; Win64; x64) AppleWebKit/537.36 (KHTML, like Gecko) Chrome/89.0.4389.128 Safari/537.36" etag="XNPp3wt_NYoRkA3DjWc3" version="14.6.3" type="github" pages="2">
  <diagram name="Page-1" id="9f46799a-70d6-7492-0946-bef42562c5a5">
    <mxGraphModel dx="3989" dy="1272" grid="1" gridSize="10" guides="1" tooltips="1" connect="1" arrows="1" fold="1" page="1" pageScale="1" pageWidth="1654" pageHeight="1169" math="0" shadow="0">
      <root>
        <mxCell id="0" />
        <mxCell id="1" parent="0" />
        <mxCell id="yIZmvAboS1plVGwmi-o9-18" value="&lt;div style=&quot;font-size: 22px&quot;&gt;AIR LCL PLatorrm&lt;/div&gt;" style="rounded=0;whiteSpace=wrap;html=1;sketch=0;fontSize=17;align=center;verticalAlign=top;" parent="1" vertex="1">
          <mxGeometry x="-1060" y="160" width="840" height="400" as="geometry" />
        </mxCell>
        <mxCell id="8DkEOpbADwX2DGaCOfEL-4" style="edgeStyle=orthogonalEdgeStyle;rounded=0;orthogonalLoop=1;jettySize=auto;html=1;fontSize=17;exitX=0.5;exitY=0;exitDx=0;exitDy=0;" parent="1" source="8DkEOpbADwX2DGaCOfEL-2" edge="1">
          <mxGeometry relative="1" as="geometry">
            <mxPoint x="-600" y="388" as="targetPoint" />
            <mxPoint x="-520" y="480" as="sourcePoint" />
          </mxGeometry>
        </mxCell>
        <mxCell id="8DkEOpbADwX2DGaCOfEL-2" value="Abstraction Layer" style="html=1;dropTarget=0;opacity=60;fontSize=17;" parent="1" vertex="1">
          <mxGeometry x="-870" y="470" width="540" height="70" as="geometry" />
        </mxCell>
        <mxCell id="8DkEOpbADwX2DGaCOfEL-6" value="EDI Seeberger" style="html=1;dropTarget=0;fontSize=17;gradientColor=#7ea6e0;fillColor=#dae8fc;strokeColor=#6c8ebf;" parent="1" vertex="1">
          <mxGeometry x="-1020" y="820" width="400" height="130" as="geometry" />
        </mxCell>
        <mxCell id="8DkEOpbADwX2DGaCOfEL-7" value="" style="shape=module;jettyWidth=8;jettyHeight=4;fontSize=17;" parent="8DkEOpbADwX2DGaCOfEL-6" vertex="1">
          <mxGeometry x="1" width="20" height="20" relative="1" as="geometry">
            <mxPoint x="-27" y="7" as="offset" />
          </mxGeometry>
        </mxCell>
        <mxCell id="8DkEOpbADwX2DGaCOfEL-8" value="Air LCL Customizations" style="shape=folder;fontStyle=1;spacingTop=10;tabWidth=40;tabHeight=14;tabPosition=left;html=1;fontSize=17;" parent="1" vertex="1">
          <mxGeometry x="-1000" y="830" width="70" height="50" as="geometry" />
        </mxCell>
        <mxCell id="8DkEOpbADwX2DGaCOfEL-9" value="&lt;font style=&quot;font-size: 23px&quot;&gt;Integration Layer &lt;br&gt;&lt;div&gt;&lt;span&gt;APIGEE REST API (Pull Data) and EMP Kafka Event Streaming (Push Data)&lt;/span&gt;&lt;/div&gt;&lt;/font&gt;" style="verticalAlign=top;align=center;spacingTop=8;spacingLeft=2;spacingRight=12;shape=cube;size=10;direction=south;fontStyle=4;html=1;opacity=60;fontSize=17;fillColor=#647687;strokeColor=#314354;fontColor=#ffffff;" parent="1" vertex="1">
          <mxGeometry x="-980" y="620" width="1850" height="120" as="geometry" />
        </mxCell>
        <mxCell id="8DkEOpbADwX2DGaCOfEL-10" value="Message Broker" style="html=1;opacity=60;fontSize=17;" parent="1" vertex="1">
          <mxGeometry x="-665" y="358" width="110" height="50" as="geometry" />
        </mxCell>
        <mxCell id="8DkEOpbADwX2DGaCOfEL-11" style="edgeStyle=orthogonalEdgeStyle;rounded=0;orthogonalLoop=1;jettySize=auto;html=1;exitX=0.25;exitY=0;exitDx=0;exitDy=0;entryX=0;entryY=0.5;entryDx=0;entryDy=0;fontSize=17;" parent="1" source="8DkEOpbADwX2DGaCOfEL-10" target="8DkEOpbADwX2DGaCOfEL-10" edge="1">
          <mxGeometry relative="1" as="geometry" />
        </mxCell>
        <mxCell id="8DkEOpbADwX2DGaCOfEL-13" value="CargoWise" style="html=1;dropTarget=0;fontSize=17;" parent="1" vertex="1">
          <mxGeometry x="-860" y="288" width="140" height="70" as="geometry" />
        </mxCell>
        <mxCell id="8DkEOpbADwX2DGaCOfEL-14" value="" style="shape=module;jettyWidth=8;jettyHeight=4;fontSize=17;" parent="8DkEOpbADwX2DGaCOfEL-13" vertex="1">
          <mxGeometry x="1" width="20" height="20" relative="1" as="geometry">
            <mxPoint x="-27" y="57" as="offset" />
          </mxGeometry>
        </mxCell>
        <mxCell id="8DkEOpbADwX2DGaCOfEL-15" value="TMFF" style="html=1;dropTarget=0;fontSize=17;" parent="1" vertex="1">
          <mxGeometry x="-690" y="288" width="130" height="70" as="geometry" />
        </mxCell>
        <mxCell id="8DkEOpbADwX2DGaCOfEL-16" value="" style="shape=module;jettyWidth=8;jettyHeight=4;fontSize=17;" parent="8DkEOpbADwX2DGaCOfEL-15" vertex="1">
          <mxGeometry x="1" width="20" height="20" relative="1" as="geometry">
            <mxPoint x="-27" y="7" as="offset" />
          </mxGeometry>
        </mxCell>
        <mxCell id="8DkEOpbADwX2DGaCOfEL-17" value="Bespoke" style="html=1;dropTarget=0;fontSize=17;" parent="1" vertex="1">
          <mxGeometry x="-510" y="288" width="130" height="70" as="geometry" />
        </mxCell>
        <mxCell id="8DkEOpbADwX2DGaCOfEL-18" value="" style="shape=module;jettyWidth=8;jettyHeight=4;fontSize=17;" parent="8DkEOpbADwX2DGaCOfEL-17" vertex="1">
          <mxGeometry x="1" width="20" height="20" relative="1" as="geometry">
            <mxPoint x="-27" y="7" as="offset" />
          </mxGeometry>
        </mxCell>
        <mxCell id="8DkEOpbADwX2DGaCOfEL-21" value="MAersk.com" style="verticalAlign=top;align=left;spacingTop=8;spacingLeft=2;spacingRight=12;shape=cube;size=10;direction=south;fontStyle=4;html=1;opacity=60;fontSize=17;gradientColor=#7ea6e0;fillColor=#dae8fc;strokeColor=#6c8ebf;" parent="1" vertex="1">
          <mxGeometry x="-290" y="825" width="180" height="120" as="geometry" />
        </mxCell>
        <mxCell id="8DkEOpbADwX2DGaCOfEL-22" value="SCM" style="verticalAlign=top;align=left;spacingTop=8;spacingLeft=2;spacingRight=12;shape=cube;size=10;direction=south;fontStyle=4;html=1;opacity=60;fontSize=17;gradientColor=#7ea6e0;fillColor=#dae8fc;strokeColor=#6c8ebf;" parent="1" vertex="1">
          <mxGeometry x="-500" y="825" width="180" height="120" as="geometry" />
        </mxCell>
        <mxCell id="8DkEOpbADwX2DGaCOfEL-29" value="" style="shape=doubleArrow;whiteSpace=wrap;html=1;rotation=90;fillColor=#0050ef;strokeColor=#001DBC;fontColor=#ffffff;" parent="1" vertex="1">
          <mxGeometry x="160" y="550" width="100" height="60" as="geometry" />
        </mxCell>
        <mxCell id="8DkEOpbADwX2DGaCOfEL-30" style="edgeStyle=orthogonalEdgeStyle;rounded=0;orthogonalLoop=1;jettySize=auto;html=1;exitX=0;exitY=0;exitDx=80;exitDy=60;exitPerimeter=0;entryX=1;entryY=0.5;entryDx=0;entryDy=0;entryPerimeter=0;fontSize=17;" parent="1" source="8DkEOpbADwX2DGaCOfEL-29" target="8DkEOpbADwX2DGaCOfEL-29" edge="1">
          <mxGeometry relative="1" as="geometry" />
        </mxCell>
        <mxCell id="8DkEOpbADwX2DGaCOfEL-32" value="" style="shape=doubleArrow;whiteSpace=wrap;html=1;rotation=90;" parent="1" vertex="1">
          <mxGeometry x="-90" y="545" width="100" height="60" as="geometry" />
        </mxCell>
        <mxCell id="8DkEOpbADwX2DGaCOfEL-34" value="" style="shape=doubleArrow;whiteSpace=wrap;html=1;rotation=90;fillColor=#0050ef;strokeColor=#001DBC;fontColor=#ffffff;" parent="1" vertex="1">
          <mxGeometry x="-80" y="750" width="100" height="60" as="geometry" />
        </mxCell>
        <mxCell id="8DkEOpbADwX2DGaCOfEL-39" value="&lt;font style=&quot;font-size: 23px&quot;&gt;External&lt;/font&gt;" style="line;strokeWidth=2;direction=south;html=1;fontSize=17;opacity=60;" parent="1" vertex="1">
          <mxGeometry x="-1230" y="130" width="10" height="850" as="geometry" />
        </mxCell>
        <mxCell id="8DkEOpbADwX2DGaCOfEL-43" value="&lt;p style=&quot;margin: 0px ; margin-top: 6px ; text-align: center&quot;&gt;&lt;b&gt;Inttra&lt;/b&gt;&lt;/p&gt;" style="align=left;overflow=fill;html=1;dropTarget=0;fontSize=17;opacity=60;fillColor=#ffe6cc;strokeColor=#d79b00;" parent="1" vertex="1">
          <mxGeometry x="-1520" y="150" width="180" height="90" as="geometry" />
        </mxCell>
        <mxCell id="8DkEOpbADwX2DGaCOfEL-44" value="" style="shape=component;jettyWidth=8;jettyHeight=4;fillColor=#ffe6cc;strokeColor=#d79b00;" parent="8DkEOpbADwX2DGaCOfEL-43" vertex="1">
          <mxGeometry x="1" width="20" height="20" relative="1" as="geometry">
            <mxPoint x="-24" y="4" as="offset" />
          </mxGeometry>
        </mxCell>
        <mxCell id="8DkEOpbADwX2DGaCOfEL-45" value="&lt;p style=&quot;margin: 0px ; margin-top: 6px ; text-align: center&quot;&gt;&lt;b&gt;Clockwork&lt;/b&gt;&lt;/p&gt;" style="align=left;overflow=fill;html=1;dropTarget=0;fontSize=17;opacity=60;fillColor=#ffe6cc;strokeColor=#d79b00;" parent="1" vertex="1">
          <mxGeometry x="-1520" y="880" width="180" height="90" as="geometry" />
        </mxCell>
        <mxCell id="8DkEOpbADwX2DGaCOfEL-46" value="" style="shape=component;jettyWidth=8;jettyHeight=4;fillColor=#ffe6cc;strokeColor=#d79b00;" parent="8DkEOpbADwX2DGaCOfEL-45" vertex="1">
          <mxGeometry x="1" width="20" height="20" relative="1" as="geometry">
            <mxPoint x="-24" y="4" as="offset" />
          </mxGeometry>
        </mxCell>
        <mxCell id="8DkEOpbADwX2DGaCOfEL-47" value="&lt;p style=&quot;margin: 0px ; margin-top: 6px ; text-align: center&quot;&gt;&lt;b&gt;Descartes&lt;/b&gt;&lt;/p&gt;" style="align=left;overflow=fill;html=1;dropTarget=0;fontSize=17;opacity=60;fillColor=#ffe6cc;strokeColor=#d79b00;" parent="1" vertex="1">
          <mxGeometry x="-1520" y="280" width="180" height="90" as="geometry" />
        </mxCell>
        <mxCell id="8DkEOpbADwX2DGaCOfEL-48" value="" style="shape=component;jettyWidth=8;jettyHeight=4;fillColor=#ffe6cc;strokeColor=#d79b00;" parent="8DkEOpbADwX2DGaCOfEL-47" vertex="1">
          <mxGeometry x="1" width="20" height="20" relative="1" as="geometry">
            <mxPoint x="-24" y="4" as="offset" />
          </mxGeometry>
        </mxCell>
        <mxCell id="8DkEOpbADwX2DGaCOfEL-49" value="&lt;p style=&quot;margin: 0px ; margin-top: 6px ; text-align: center&quot;&gt;&lt;b&gt;HK Customs&lt;/b&gt;&lt;/p&gt;" style="align=left;overflow=fill;html=1;dropTarget=0;fontSize=17;opacity=60;fillColor=#ffe6cc;strokeColor=#d79b00;" parent="1" vertex="1">
          <mxGeometry x="-1520" y="520" width="180" height="90" as="geometry" />
        </mxCell>
        <mxCell id="8DkEOpbADwX2DGaCOfEL-50" value="" style="shape=component;jettyWidth=8;jettyHeight=4;fillColor=#ffe6cc;strokeColor=#d79b00;" parent="8DkEOpbADwX2DGaCOfEL-49" vertex="1">
          <mxGeometry x="1" width="20" height="20" relative="1" as="geometry">
            <mxPoint x="-24" y="4" as="offset" />
          </mxGeometry>
        </mxCell>
        <mxCell id="8DkEOpbADwX2DGaCOfEL-51" value="&lt;p style=&quot;margin: 0px ; margin-top: 6px ; text-align: center&quot;&gt;&lt;b&gt;AES&lt;/b&gt;&lt;/p&gt;" style="align=left;overflow=fill;html=1;dropTarget=0;fontSize=17;opacity=60;fillColor=#ffe6cc;strokeColor=#d79b00;" parent="1" vertex="1">
          <mxGeometry x="-1520" y="400" width="180" height="90" as="geometry" />
        </mxCell>
        <mxCell id="8DkEOpbADwX2DGaCOfEL-52" value="" style="shape=component;jettyWidth=8;jettyHeight=4;fillColor=#ffe6cc;strokeColor=#d79b00;" parent="8DkEOpbADwX2DGaCOfEL-51" vertex="1">
          <mxGeometry x="1" width="20" height="20" relative="1" as="geometry">
            <mxPoint x="-24" y="4" as="offset" />
          </mxGeometry>
        </mxCell>
        <mxCell id="8DkEOpbADwX2DGaCOfEL-53" value="&lt;p style=&quot;margin: 0px ; margin-top: 6px ; text-align: center&quot;&gt;&lt;b&gt;STAR&lt;/b&gt;&lt;/p&gt;" style="align=left;overflow=fill;html=1;dropTarget=0;fontSize=17;opacity=60;fillColor=#ffe6cc;strokeColor=#d79b00;" parent="1" vertex="1">
          <mxGeometry x="-1520" y="640" width="180" height="90" as="geometry" />
        </mxCell>
        <mxCell id="8DkEOpbADwX2DGaCOfEL-54" value="" style="shape=component;jettyWidth=8;jettyHeight=4;fillColor=#ffe6cc;strokeColor=#d79b00;" parent="8DkEOpbADwX2DGaCOfEL-53" vertex="1">
          <mxGeometry x="1" width="20" height="20" relative="1" as="geometry">
            <mxPoint x="-24" y="4" as="offset" />
          </mxGeometry>
        </mxCell>
        <mxCell id="8DkEOpbADwX2DGaCOfEL-59" value="" style="shape=doubleArrow;whiteSpace=wrap;html=1;fontSize=17;opacity=60;rotation=90;fillColor=#0050ef;strokeColor=#001DBC;fontColor=#ffffff;" parent="1" vertex="1">
          <mxGeometry x="-480" y="750" width="100" height="60" as="geometry" />
        </mxCell>
        <mxCell id="8DkEOpbADwX2DGaCOfEL-61" value="" style="shape=doubleArrow;whiteSpace=wrap;html=1;fontSize=17;opacity=60;fillColor=#fa6800;strokeColor=#C73500;fontColor=#ffffff;" parent="1" vertex="1">
          <mxGeometry x="-1200" y="640" width="100" height="60" as="geometry" />
        </mxCell>
        <mxCell id="8DkEOpbADwX2DGaCOfEL-62" value="" style="shape=doubleArrow;whiteSpace=wrap;html=1;fontSize=17;opacity=60;fillColor=#fa6800;strokeColor=#C73500;fontColor=#ffffff;" parent="1" vertex="1">
          <mxGeometry x="-1200" y="830" width="100" height="60" as="geometry" />
        </mxCell>
        <mxCell id="8DkEOpbADwX2DGaCOfEL-63" value="Abstraction Layer" style="html=1;dropTarget=0;opacity=60;fontSize=17;rotation=-90;" parent="1" vertex="1">
          <mxGeometry x="-1119.9999999999998" y="402" width="217.41" height="68" as="geometry" />
        </mxCell>
        <mxCell id="8DkEOpbADwX2DGaCOfEL-64" value="" style="shape=doubleArrow;whiteSpace=wrap;html=1;fontSize=17;opacity=60;fillColor=#fa6800;strokeColor=#C73500;fontColor=#ffffff;" parent="1" vertex="1">
          <mxGeometry x="-1200" y="415" width="100" height="60" as="geometry" />
        </mxCell>
        <mxCell id="yIZmvAboS1plVGwmi-o9-2" value="" style="shape=doubleArrow;whiteSpace=wrap;html=1;rotation=90;fillColor=#0050ef;strokeColor=#001DBC;fontColor=#ffffff;" parent="1" vertex="1">
          <mxGeometry x="390" y="760" width="100" height="60" as="geometry" />
        </mxCell>
        <mxCell id="yIZmvAboS1plVGwmi-o9-6" value="" style="shape=doubleArrow;whiteSpace=wrap;html=1;rotation=90;fillColor=#0050ef;strokeColor=#001DBC;fontColor=#ffffff;" parent="1" vertex="1">
          <mxGeometry x="-690" y="560" width="100" height="60" as="geometry" />
        </mxCell>
        <mxCell id="yIZmvAboS1plVGwmi-o9-7" value="" style="shape=doubleArrow;whiteSpace=wrap;html=1;rotation=90;fillColor=#0050ef;strokeColor=#001DBC;fontColor=#ffffff;" parent="1" vertex="1">
          <mxGeometry x="-90" y="545" width="100" height="60" as="geometry" />
        </mxCell>
        <mxCell id="yIZmvAboS1plVGwmi-o9-12" value="" style="rounded=0;whiteSpace=wrap;html=1;sketch=0;fillColor=#0050ef;strokeColor=#001DBC;fontColor=#ffffff;" parent="1" vertex="1">
          <mxGeometry x="-70" y="180" width="140" height="30" as="geometry" />
        </mxCell>
        <mxCell id="yIZmvAboS1plVGwmi-o9-14" value="MIM Aligned Data Flows" style="text;html=1;strokeColor=none;fillColor=none;align=center;verticalAlign=middle;whiteSpace=wrap;rounded=0;sketch=0;fontSize=17;" parent="1" vertex="1">
          <mxGeometry x="130" y="170" width="280" height="40" as="geometry" />
        </mxCell>
        <mxCell id="yIZmvAboS1plVGwmi-o9-19" value="" style="shape=doubleArrow;whiteSpace=wrap;html=1;rotation=90;fillColor=#0050ef;strokeColor=#001DBC;fontColor=#ffffff;" parent="1" vertex="1">
          <mxGeometry x="-260" y="750" width="100" height="60" as="geometry" />
        </mxCell>
        <mxCell id="yIZmvAboS1plVGwmi-o9-23" value="" style="rounded=0;whiteSpace=wrap;html=1;sketch=0;fontSize=17;strokeColor=#C73500;fillColor=#fa6800;fontColor=#ffffff;" parent="1" vertex="1">
          <mxGeometry x="-70" y="228" width="140" height="32" as="geometry" />
        </mxCell>
        <mxCell id="yIZmvAboS1plVGwmi-o9-24" value="External&amp;nbsp; Data Flows" style="text;html=1;strokeColor=none;fillColor=none;align=center;verticalAlign=middle;whiteSpace=wrap;rounded=0;sketch=0;fontSize=17;" parent="1" vertex="1">
          <mxGeometry x="130" y="220" width="280" height="40" as="geometry" />
        </mxCell>
        <mxCell id="yIZmvAboS1plVGwmi-o9-43" value="&lt;p style=&quot;margin: 6px 0px 0px; text-align: center; font-size: 17px;&quot;&gt;Lift&lt;/p&gt;" style="align=left;overflow=fill;html=1;dropTarget=0;opacity=60;fontSize=17;gradientColor=#7ea6e0;fillColor=#dae8fc;strokeColor=#6c8ebf;" parent="1" vertex="1">
          <mxGeometry x="-130" y="440" width="180" height="90" as="geometry" />
        </mxCell>
        <mxCell id="yIZmvAboS1plVGwmi-o9-44" value="" style="shape=component;jettyWidth=8;jettyHeight=4;fontSize=17;" parent="yIZmvAboS1plVGwmi-o9-43" vertex="1">
          <mxGeometry x="1" width="20" height="20" relative="1" as="geometry">
            <mxPoint x="-24" y="4" as="offset" />
          </mxGeometry>
        </mxCell>
        <mxCell id="yIZmvAboS1plVGwmi-o9-45" value="&lt;p style=&quot;margin: 6px 0px 0px ; text-align: center ; font-size: 17px&quot;&gt;DDSI&lt;/p&gt;" style="align=left;overflow=fill;html=1;dropTarget=0;opacity=60;fontSize=17;gradientColor=#7ea6e0;fillColor=#dae8fc;strokeColor=#6c8ebf;" parent="1" vertex="1">
          <mxGeometry x="130" y="440" width="180" height="95" as="geometry" />
        </mxCell>
        <mxCell id="yIZmvAboS1plVGwmi-o9-46" value="" style="shape=component;jettyWidth=8;jettyHeight=4;fontSize=17;" parent="yIZmvAboS1plVGwmi-o9-45" vertex="1">
          <mxGeometry x="1" width="20" height="20" relative="1" as="geometry">
            <mxPoint x="-24" y="4" as="offset" />
          </mxGeometry>
        </mxCell>
        <mxCell id="yIZmvAboS1plVGwmi-o9-47" value="&lt;p style=&quot;margin: 6px 0px 0px ; text-align: center ; font-size: 17px&quot;&gt;CMD&lt;/p&gt;" style="align=left;overflow=fill;html=1;dropTarget=0;opacity=60;fontSize=17;gradientColor=#7ea6e0;fillColor=#dae8fc;strokeColor=#6c8ebf;" parent="1" vertex="1">
          <mxGeometry x="360" y="440" width="180" height="95" as="geometry" />
        </mxCell>
        <mxCell id="yIZmvAboS1plVGwmi-o9-48" value="" style="shape=component;jettyWidth=8;jettyHeight=4;fontSize=17;" parent="yIZmvAboS1plVGwmi-o9-47" vertex="1">
          <mxGeometry x="1" width="20" height="20" relative="1" as="geometry">
            <mxPoint x="-24" y="4" as="offset" />
          </mxGeometry>
        </mxCell>
        <mxCell id="yIZmvAboS1plVGwmi-o9-49" value="&lt;p style=&quot;margin: 0px ; margin-top: 6px ; text-align: center&quot;&gt;&lt;b&gt;GPM&lt;/b&gt;&lt;/p&gt;" style="align=left;overflow=fill;html=1;dropTarget=0;fontSize=17;opacity=60;gradientColor=#7ea6e0;fillColor=#dae8fc;strokeColor=#6c8ebf;" parent="1" vertex="1">
          <mxGeometry x="360" y="840" width="180" height="70" as="geometry" />
        </mxCell>
        <mxCell id="yIZmvAboS1plVGwmi-o9-50" value="" style="shape=component;jettyWidth=8;jettyHeight=4;" parent="yIZmvAboS1plVGwmi-o9-49" vertex="1">
          <mxGeometry x="1" width="20" height="20" relative="1" as="geometry">
            <mxPoint x="-24" y="4" as="offset" />
          </mxGeometry>
        </mxCell>
        <mxCell id="i5_MSsrpzj_MA6RazkfI-1" value="" style="shape=doubleArrow;whiteSpace=wrap;html=1;rotation=90;fillColor=#0050ef;strokeColor=#001DBC;fontColor=#ffffff;" parent="1" vertex="1">
          <mxGeometry x="430" y="550" width="100" height="60" as="geometry" />
        </mxCell>
        <mxCell id="i5_MSsrpzj_MA6RazkfI-12" value="Finance (FACT)" style="verticalAlign=top;align=left;spacingTop=8;spacingLeft=2;spacingRight=12;shape=cube;size=10;direction=south;fontStyle=4;html=1;fontSize=17;opacity=60;gradientColor=#7ea6e0;fillColor=#dae8fc;strokeColor=#6c8ebf;" parent="1" vertex="1">
          <mxGeometry x="-70" y="830" width="180" height="120" as="geometry" />
        </mxCell>
        <mxCell id="i5_MSsrpzj_MA6RazkfI-19" value="TWILL" style="verticalAlign=top;align=left;spacingTop=8;spacingLeft=2;spacingRight=12;shape=cube;size=10;direction=south;fontStyle=4;html=1;fontSize=17;opacity=60;gradientColor=#7ea6e0;fillColor=#dae8fc;strokeColor=#6c8ebf;" parent="1" vertex="1">
          <mxGeometry x="160" y="825" width="180" height="120" as="geometry" />
        </mxCell>
        <mxCell id="i5_MSsrpzj_MA6RazkfI-20" value="" style="shape=doubleArrow;whiteSpace=wrap;html=1;rotation=90;fillColor=#0050ef;strokeColor=#001DBC;fontColor=#ffffff;" parent="1" vertex="1">
          <mxGeometry x="190" y="750" width="100" height="60" as="geometry" />
        </mxCell>
        <mxCell id="i5_MSsrpzj_MA6RazkfI-22" value="" style="shape=doubleArrow;whiteSpace=wrap;html=1;fontSize=17;opacity=60;rotation=90;fillColor=#0050ef;strokeColor=#001DBC;fontColor=#ffffff;" parent="1" vertex="1">
          <mxGeometry x="-840" y="750" width="100" height="60" as="geometry" />
        </mxCell>
        <mxCell id="jg66TISKfYZpTwH5pZbs-1" value="CargoWise&lt;br&gt;&amp;nbsp;(Acquisition)" style="html=1;dropTarget=0;fontSize=17;" vertex="1" parent="1">
          <mxGeometry x="-990" y="205" width="140" height="70" as="geometry" />
        </mxCell>
        <mxCell id="jg66TISKfYZpTwH5pZbs-2" value="" style="shape=module;jettyWidth=8;jettyHeight=4;fontSize=17;" vertex="1" parent="jg66TISKfYZpTwH5pZbs-1">
          <mxGeometry x="1" width="20" height="20" relative="1" as="geometry">
            <mxPoint x="-27" y="57" as="offset" />
          </mxGeometry>
        </mxCell>
        <mxCell id="jg66TISKfYZpTwH5pZbs-5" value="" style="edgeStyle=orthogonalEdgeStyle;rounded=0;orthogonalLoop=1;jettySize=auto;html=1;" edge="1" parent="1" source="jg66TISKfYZpTwH5pZbs-3" target="8DkEOpbADwX2DGaCOfEL-39">
          <mxGeometry relative="1" as="geometry" />
        </mxCell>
        <mxCell id="jg66TISKfYZpTwH5pZbs-3" value="NTS" style="html=1;dropTarget=0;fontSize=17;fillColor=#dae8fc;strokeColor=#6c8ebf;" vertex="1" parent="1">
          <mxGeometry x="-1510" y="770" width="140" height="70" as="geometry" />
        </mxCell>
        <mxCell id="jg66TISKfYZpTwH5pZbs-4" value="" style="shape=module;jettyWidth=8;jettyHeight=4;fontSize=17;" vertex="1" parent="jg66TISKfYZpTwH5pZbs-3">
          <mxGeometry x="1" width="20" height="20" relative="1" as="geometry">
            <mxPoint x="-27" y="57" as="offset" />
          </mxGeometry>
        </mxCell>
      </root>
    </mxGraphModel>
  </diagram>
  <diagram id="qq24ump1-K_oy7pR4gMm" name="Sensor Transport New Flow">
    <mxGraphModel dx="1401" dy="763" grid="1" gridSize="10" guides="1" tooltips="1" connect="1" arrows="1" fold="1" page="1" pageScale="1" pageWidth="1654" pageHeight="1169" math="0" shadow="0">
      <root>
        <mxCell id="3SMzHpaPHOP0sQKuE5mX-0" />
        <mxCell id="3SMzHpaPHOP0sQKuE5mX-1" parent="3SMzHpaPHOP0sQKuE5mX-0" />
        <mxCell id="3SMzHpaPHOP0sQKuE5mX-14" style="rounded=0;orthogonalLoop=1;jettySize=auto;html=1;exitX=0;exitY=0.5;exitDx=0;exitDy=0;entryX=0;entryY=0.75;entryDx=0;entryDy=0;fillColor=#f8cecc;strokeColor=#b85450;" parent="3SMzHpaPHOP0sQKuE5mX-1" source="3SMzHpaPHOP0sQKuE5mX-2" target="3SMzHpaPHOP0sQKuE5mX-8" edge="1">
          <mxGeometry relative="1" as="geometry">
            <Array as="points">
              <mxPoint x="60" y="90" />
              <mxPoint x="60" y="423" />
            </Array>
          </mxGeometry>
        </mxCell>
        <mxCell id="dSScK0Fup5-AbwH2DOtc-0" value="Current Flow" style="edgeLabel;html=1;align=center;verticalAlign=middle;resizable=0;points=[];" vertex="1" connectable="0" parent="3SMzHpaPHOP0sQKuE5mX-14">
          <mxGeometry x="0.1094" relative="1" as="geometry">
            <mxPoint as="offset" />
          </mxGeometry>
        </mxCell>
        <mxCell id="3SMzHpaPHOP0sQKuE5mX-2" value="Sensor Transport" style="rounded=1;whiteSpace=wrap;html=1;" parent="3SMzHpaPHOP0sQKuE5mX-1" vertex="1">
          <mxGeometry x="100" y="60" width="120" height="60" as="geometry" />
        </mxCell>
        <mxCell id="3SMzHpaPHOP0sQKuE5mX-3" value="EDI Seeberger" style="rounded=1;whiteSpace=wrap;html=1;" parent="3SMzHpaPHOP0sQKuE5mX-1" vertex="1">
          <mxGeometry x="270" y="100" width="120" height="60" as="geometry" />
        </mxCell>
        <mxCell id="3SMzHpaPHOP0sQKuE5mX-4" value="Apigee" style="rounded=1;whiteSpace=wrap;html=1;" parent="3SMzHpaPHOP0sQKuE5mX-1" vertex="1">
          <mxGeometry x="430" y="290" width="280" height="30" as="geometry" />
        </mxCell>
        <mxCell id="3SMzHpaPHOP0sQKuE5mX-5" value="EMP" style="rounded=1;whiteSpace=wrap;html=1;" parent="3SMzHpaPHOP0sQKuE5mX-1" vertex="1">
          <mxGeometry x="100" y="210" width="290" height="30" as="geometry" />
        </mxCell>
        <mxCell id="3SMzHpaPHOP0sQKuE5mX-6" value="Canonical/Abstraction Layer" style="rounded=1;whiteSpace=wrap;html=1;" parent="3SMzHpaPHOP0sQKuE5mX-1" vertex="1">
          <mxGeometry x="110" y="290" width="270" height="30" as="geometry" />
        </mxCell>
        <mxCell id="3SMzHpaPHOP0sQKuE5mX-7" value="CW One" style="rounded=1;whiteSpace=wrap;html=1;" parent="3SMzHpaPHOP0sQKuE5mX-1" vertex="1">
          <mxGeometry x="280" y="460" width="130" height="60" as="geometry" />
        </mxCell>
        <mxCell id="3SMzHpaPHOP0sQKuE5mX-16" style="edgeStyle=none;rounded=0;orthogonalLoop=1;jettySize=auto;html=1;exitX=0.5;exitY=1;exitDx=0;exitDy=0;entryX=0.5;entryY=0;entryDx=0;entryDy=0;" parent="3SMzHpaPHOP0sQKuE5mX-1" source="3SMzHpaPHOP0sQKuE5mX-8" target="3SMzHpaPHOP0sQKuE5mX-13" edge="1">
          <mxGeometry relative="1" as="geometry" />
        </mxCell>
        <mxCell id="3SMzHpaPHOP0sQKuE5mX-8" value="Message Broker" style="rounded=1;whiteSpace=wrap;html=1;" parent="3SMzHpaPHOP0sQKuE5mX-1" vertex="1">
          <mxGeometry x="120" y="400" width="130" height="30" as="geometry" />
        </mxCell>
        <mxCell id="3SMzHpaPHOP0sQKuE5mX-11" value="Maersk.com" style="rounded=1;whiteSpace=wrap;html=1;" parent="3SMzHpaPHOP0sQKuE5mX-1" vertex="1">
          <mxGeometry x="540" y="100" width="120" height="60" as="geometry" />
        </mxCell>
        <mxCell id="3SMzHpaPHOP0sQKuE5mX-12" value="Portal" style="rounded=1;whiteSpace=wrap;html=1;" parent="3SMzHpaPHOP0sQKuE5mX-1" vertex="1">
          <mxGeometry x="700" y="40" width="120" height="60" as="geometry" />
        </mxCell>
        <mxCell id="3SMzHpaPHOP0sQKuE5mX-13" value="TMFF" style="rounded=1;whiteSpace=wrap;html=1;" parent="3SMzHpaPHOP0sQKuE5mX-1" vertex="1">
          <mxGeometry x="120" y="460" width="130" height="60" as="geometry" />
        </mxCell>
        <mxCell id="dSScK0Fup5-AbwH2DOtc-1" value="" style="endArrow=classic;html=1;exitX=0.5;exitY=1;exitDx=0;exitDy=0;" edge="1" parent="3SMzHpaPHOP0sQKuE5mX-1" source="3SMzHpaPHOP0sQKuE5mX-3" target="3SMzHpaPHOP0sQKuE5mX-5">
          <mxGeometry width="50" height="50" relative="1" as="geometry">
            <mxPoint x="690" y="420" as="sourcePoint" />
            <mxPoint x="740" y="370" as="targetPoint" />
          </mxGeometry>
        </mxCell>
        <mxCell id="dSScK0Fup5-AbwH2DOtc-3" value="" style="endArrow=classic;html=1;entryX=0;entryY=0.5;entryDx=0;entryDy=0;" edge="1" parent="3SMzHpaPHOP0sQKuE5mX-1" source="3SMzHpaPHOP0sQKuE5mX-2" target="3SMzHpaPHOP0sQKuE5mX-3">
          <mxGeometry width="50" height="50" relative="1" as="geometry">
            <mxPoint x="160" y="120" as="sourcePoint" />
            <mxPoint x="210" y="70" as="targetPoint" />
            <Array as="points">
              <mxPoint x="160" y="130" />
            </Array>
          </mxGeometry>
        </mxCell>
        <mxCell id="dSScK0Fup5-AbwH2DOtc-5" value="" style="endArrow=classic;html=1;" edge="1" parent="3SMzHpaPHOP0sQKuE5mX-1" source="3SMzHpaPHOP0sQKuE5mX-5" target="3SMzHpaPHOP0sQKuE5mX-6">
          <mxGeometry width="50" height="50" relative="1" as="geometry">
            <mxPoint x="680" y="210" as="sourcePoint" />
            <mxPoint x="730" y="160" as="targetPoint" />
          </mxGeometry>
        </mxCell>
        <mxCell id="dSScK0Fup5-AbwH2DOtc-6" value="" style="endArrow=classic;html=1;entryX=0.5;entryY=0;entryDx=0;entryDy=0;" edge="1" parent="3SMzHpaPHOP0sQKuE5mX-1" source="3SMzHpaPHOP0sQKuE5mX-6" target="3SMzHpaPHOP0sQKuE5mX-8">
          <mxGeometry width="50" height="50" relative="1" as="geometry">
            <mxPoint x="680" y="210" as="sourcePoint" />
            <mxPoint x="730" y="160" as="targetPoint" />
          </mxGeometry>
        </mxCell>
        <mxCell id="dSScK0Fup5-AbwH2DOtc-7" value="" style="endArrow=classic;html=1;exitX=0.5;exitY=1;exitDx=0;exitDy=0;" edge="1" parent="3SMzHpaPHOP0sQKuE5mX-1" source="3SMzHpaPHOP0sQKuE5mX-6" target="3SMzHpaPHOP0sQKuE5mX-7">
          <mxGeometry width="50" height="50" relative="1" as="geometry">
            <mxPoint x="680" y="210" as="sourcePoint" />
            <mxPoint x="730" y="160" as="targetPoint" />
          </mxGeometry>
        </mxCell>
      </root>
    </mxGraphModel>
  </diagram>
</mxfile>
